<svg width="172" height="31" fill="none" xmlns="http://www.w3.org/2000/svg"><path fill-rule="evenodd" clip-rule="evenodd" d="M114.549 0v7.178H99.996v8.423h5.369v14.126h9.204v-20.8h8.584V0h-8.604z" fill="#0E1271"/><path fill-rule="evenodd" clip-rule="evenodd" d="M135.268 16.653c-3.002-1.587-5.875-1.199-5.653-2.712.256-1.728 3.868-.407 6.631 1.183l2.528-6.028c-3.385-1.939-5.793-2.384-8.106-2.49-2.892-.136-5.896.971-7.511 2.385-2.609 2.283-3.224 5.954-1.654 8.873 1.934 3.607 6.181 3.603 7.631 4.304.92.445.82 1.6-.175 1.912-2.431.755-7.274-2.312-7.274-2.312l-2.605 5.975c3.333 1.9 6.066 3.015 9.921 3.015 11.351 0 12.022-11.303 6.267-14.105zM24.87 7.43H14.288l-4.95 10.965V7.431H0v22.487h9.339V18.492l5.211 11.426H25.23L19.57 18.446l5.3-11.015zM152.859 7.43v14.112h-.012a1.229 1.229 0 01-1.228 1.187 1.233 1.233 0 01-1.234-1.187h-.012V7.43h-9.239v14.067c0 6.16 4.147 9.29 10.441 9.29 6.292 0 10.534-3.01 10.534-9.29V7.43h-9.25z" fill="#0E1271"/><path fill-rule="evenodd" clip-rule="evenodd" d="M35.94 22.106a3.417 3.417 0 01-3.408-3.427 3.417 3.417 0 013.409-3.426 3.419 3.419 0 013.41 3.426 3.419 3.419 0 01-3.41 3.427zm0-15.535c-6.655 0-12.049 5.42-12.049 12.108 0 6.689 5.394 12.11 12.05 12.11 6.655 0 12.05-5.421 12.05-12.11 0-6.687-5.395-12.108-12.05-12.108zM85.075 7.43l-7.301 21.108L74.59 7.43h-8.44l-2.844 9.008-2.839-9.008H52.03l-3.392 22.487h8.386l1.224-8.536 2.35 8.536h5.424l2.351-8.536 1.22 8.536h17.376l2.751-10.6 2.757 10.6h9.67L94.369 7.431h-9.294z" fill="#0E1271"/><mask id="a" maskUnits="userSpaceOnUse" x="164" y="7" width="8" height="8"><path d="M164.89 7.386h6.678v6.712h-6.678V7.386z" fill="#0E1271"/></mask><g mask="url(#a)"><path fill-rule="evenodd" clip-rule="evenodd" d="M165.299 10.742a2.938 2.938 0 012.928-2.944 2.94 2.94 0 012.932 2.944 2.943 2.943 0 01-2.932 2.947c-1.614 0-2.928-1.322-2.928-2.947zm-.409 0c0 1.85 1.5 3.356 3.337 3.356a3.351 3.351 0 003.341-3.357 3.352 3.352 0 00-3.341-3.355c-1.837 0-3.337 1.507-3.337 3.356z" fill="#0E1271"/></g><path fill-rule="evenodd" clip-rule="evenodd" d="M168.233 10.912c.228.017.454 0 .62.188.185.205.185.541.229.912.031.246.097.512.15.755h.606c-.147-.385-.193-.825-.256-1.233-.064-.461-.128-.721-.623-.841v-.013c.476-.114.772-.497.772-.99 0-.813-.71-1.03-1.393-1.03h-1.465v4.107h.567v-1.855h.793zm-.802-1.763h.933c.63.027.771.312.771.638 0 .324-.141.607-.771.64h-.933V9.148z" fill="#0E1271"/></svg>