<svg width="93" height="59" fill="none" xmlns="http://www.w3.org/2000/svg"><path d="M0 5a5 5 0 015-5h83a5 5 0 015 5v48.263a5 5 0 01-5 5H5a5 5 0 01-5-5V5z" fill="#FFCB01"/><path d="M17.283 22.461l-2.88 3.891H30.1c.793 0 .783.297.395.823-.393.531-1.053 1.45-1.454 1.991-.204.274-.572.772.647.772h6.418l1.902-2.57c1.18-1.593.103-4.905-4.114-4.905l-16.61-.002z" fill="#D80613"/><path d="M13.238 35.137l5.785-7.817H26.2c.794 0 .784.3.396.823l-1.464 1.984c-.204.273-.572.771.647.771h9.615c-.798 1.09-3.395 4.24-8.05 4.24H13.238zm33.127-4.24l-3.137 4.24h-8.275l3.137-4.24h8.275zm12.675-.961H38.803l5.534-7.475h8.27l-3.17 4.287h3.691l3.175-4.287h8.27l-5.533 7.475zm-.71.96l-3.137 4.241h-8.271l3.137-4.24h8.27zM1.431 32.57H13.62l-.665.9H1.432v-.9zm0-1.673h13.427l-.667.9H1.432v-.9zm0 3.346h10.95l-.662.895H1.432v-.895zm90.138-.773H79.426l.667-.9H91.57v.9zm0 1.668H78.193l.66-.895H91.57v.895zm-10.24-4.24h10.24v.9H80.665l.665-.9zm-5.3-8.436l-5.534 7.475H61.73l5.538-7.475h8.761zM61.02 30.896s-.604.823-.898 1.216c-1.037 1.398-.121 3.023 3.27 3.023h13.284l3.136-4.239H61.022z" fill="#D80613"/></svg>