<svg width="122" height="61" fill="none" xmlns="http://www.w3.org/2000/svg"><path fill="#fff" d="M0 0h121.032v60.928H0z"/><path stroke="#E6E6E6" d="M0 0h121.032v60.928H0z"/><path fill-rule="evenodd" clip-rule="evenodd" d="M95.313 40.144l.08-.073.039-.119-.004-.148-.08-.156-.123-.117-.022-.054v-.062l.061-.099.246-.225.113-.029.093.06.185.206.073.235-.094.287-.144.249-.203.189-.273.12-.054-.004-.03-.035v-.046l.137-.179zm-50.974-.502l-.088-.3-.344-.836-.034-.018-.036.018-.378.722-.35.666-.039.04-.05.01-.051-.014-.105-.136-.078-.243-.063-.132-.11-.312-.275-.737-.43-1.128-.113-.122-.131-.109-.008-.054.023-.052.124-.035.858.009.062.02.043.038.016.055-.02.053-.125.113-.042.11.097.36.511 1.359.036.011.073-.07.254-.53.14-.33v-.125l-.261-.68-.11-.124-.14-.099-.05-.089.031-.03.191-.043.273.034.297-.015.136-.028.14.02.07.07-.006.047-.116.116-.02.22.055.183.452 1.183.066.17.035.004.081-.153.36-1.044.05-.343-.035-.129-.117-.113-.168-.073-.036-.047.005-.057.04-.04.612-.016.128-.032.066.004.094.07.015.106-.194.195-.593 1.668-.16.466-.078.174-.168.356-.09.068-.096-.033-.126-.267zm41.787.186l-.49-.133-.064-.102-.12-.658.034-.124.048-.021.047.017.065.098.083.229.202.265.218.172.284.108.211-.02.244-.142.131-.184.038-.2L87.03 39l-.141-.17-.252-.137-.264-.125-.372-.175-.304-.164-.125-.187-.077-.237-.027-.188.06-.32.12-.191.313-.234.225-.088h.171l.439.112.182.054.194-.038.052.02.027.131.08.628-.02.067-.034.038h-.053l-.081-.079-.121-.269-.2-.268-.15-.082-.292-.092-.236.047-.173.14-.07.086-.015.137.054.184.118.116.506.273.437.186.222.169.122.19.077.23.028.215-.08.395-.251.291-.298.172-.316.078-.185-.043-.193-.044zm-18.964.023l-.37-.096-.094-.066-.079-.138-.038-.208-.098-.443.024-.05.05-.023.055.006.074.092.155.31.266.282.202.107.249.047.305-.084.195-.195.054-.184-.043-.186-.081-.151-.187-.126-.663-.273-.351-.195-.12-.113-.102-.21-.054-.26.041-.274.094-.219.234-.233.204-.11.209-.023.305.007.367.106.26-.032.052.024.038.121.031.281.024.21.018.142-.018.066-.038.038-.055.009-.052-.025-.128-.268-.167-.223-.169-.143-.288-.106h-.125l-.237.078-.118.117-.046.115.007.213.094.141.178.133.394.151.438.186.218.171.147.243.08.232-.005.232-.078.31-.16.23-.17.14-.274.118-.254.063-.144-.008-.256-.056zm-17.341.04l-.305-.087-.23-.08-.078-.082-.14-.706.012-.054.03-.04.047-.003.086.07.259.444.155.157.195.115.184.056.218-.012.16-.075.229-.236.047-.113-.009-.133-.074-.164-.17-.14-.15-.087-.607-.247-.295-.173-.119-.117-.124-.265-.05-.264.031-.206.128-.262.109-.125.226-.163.327-.066.351.041.233.079.332-.015.059.093.082.624-.007.075-.029.054-.05.024-.055-.008-.073-.09-.134-.258-.14-.171-.228-.16-.188-.05-.226.003-.153.082-.109.125-.05.179.038.19.063.095.245.144.574.207.253.136.233.234.126.265.022.21-.01.3-.067.169-.156.155-.149.164-.312.156-.125.031-.442-.025zm-10.013-.238l-.098-.06-.097-.13-.004-.142.132-.302.067-.09.1-.056.378-.011.466.003.093.063.132.178.078.162v.203l-.054.104-.18.14-.023.05.008.056.039.038.222.02.35-.043.382.008.203.035.066-.02.04-.038.007-.056-.023-.05-.254-.144-.094-.141-.151-.394-.126-.264-.4-.847-.352-.74-.164-.308-.076-.063-.044.008-.106.128-.662 1.521-.269.589-.174.37-.13.183-.183.136-.015.052.02.042.05.027h.313l.17-.011.414.055.067-.009.053-.032.031-.05v-.055l-.03-.05-.172-.065zm-3.145.22h.315l.061-.014.04-.034.004-.056-.073-.08-.22-.102-.065-.087-.024-.521.004-.152.083-.153.088-.073.055-.004.095.054.269.359.35.43.117.193.136.175.101.055.3.012.347-.046.04-.038.004-.059-.029-.054-.237-.16-.195-.196-.113-.198-.448-.565-.254-.374v-.122l.824-.82.234-.157.17-.07.036-.039v-.047l-.04-.039-.22-.016-.782.005-.049.027-.02.046.015.047.102.063.098.06-.008.114-.125.194-.293.333-.296.25-.202.192-.087.05-.05-.071-.02-.296.004-.62.047-.11.179-.134.024-.043-.008-.04-.036-.039-.127-.03-.278.042-.53-.015-.137-.028-.124.035-.028.051.013.055.037.042.273.121.087.148.018.293.01 1.474-.005.168-.034.279-.06.09-.198.125-.016.047.02.047.2.042h.17l.46-.012h.001v-.003zm62.742-.071h-.773l-.277.037-.221-.018-.039-.035v-.052l.078-.078.137-.102.081-.15.004-.855-.046-.065-.016-.017.062-.15-.004-1.01-.081-.152-.152-.082-.124-.035-.048-.032-.023-.055.011-.061.043-.04.222-.015.931.004.055.028.028.05-.011.054-.04.044-.163.074-.04.04-.023.13-.011.224-.015.123.027.2-.016.416.021.29v.857l.039.116.096.059.292.02.405-.064.25-.14.272-.276.056-.023.055.007.041.038.017.066-.047.192-.105.208-.157.155-.21.104-.175.024-.406-.053zm-25.103-.192l-.937-.936-.173-.215-.308-.316-.141-.171-.324-.308-.038.009-.024.133-.004.54-.032.203.015.451.055.414.057.103.2.106.174.071.025.036-.006.038-.095.062h-.226l-.276-.038-.288.028-.145.017-.124-.034-.02-.046.02-.043.237-.16.08-.15.044-.192.008-.616.032-.203-.005-.776-.07-.319-.129-.185-.155-.08-.106-.05-.021-.04.006-.042.095-.063h.694l.15.084.226.24.141.17.235.236.311.39.908.892.039-.008.024-.134.003-.462.035-.281-.043-.43-.025-.21-.12-.19-.335-.141-.025-.052.018-.045.055-.025.7-.003.2-.035.121.038.027.049-.009.046-.229.168-.05.105-.055.334-.008 1.707-.087.542-.034.038h-.05l-.08-.077-.138-.174zm-27.912.009l-.132-.102-.024-.04.038-.32.141-.248.11-.047.35-.04.304.008.25.062.073.083.136.253.036.18-.066.147-.184.137-.03.042v.052l.038.035.222.015 1.01-.008.038-.038v-.059l-.03-.048-.25-.148-.082-.136-.04-.131-.077-.157-.141-.328-.546-1.169-.397-.776-.098-.03-.088.065-.617 1.41-.11.204-.249.608-.242.459-.124.11-.098.066-.023.038.008.035.05.027.539.012.28.035.222-.02.043-.038.005-.056-.025-.05-.22-.094zm60.727.03l-.097-.144v-.118l.199-.198.156-.083.113.011.136.104.153.166.014.062-.043.114-.191.198-.161.075-.158-.075-.121-.113zm-2.526.187h-.938l-.057-.015-.037-.031v-.08l.168-.118.094-.139.032-.125-.01-1.784-.062-.328-.057-.098-.272-.121-.043-.038-.016-.047.018-.047.053-.028 1.005-.012.203-.03.541.004.39.078.328.14.232.156.224.246.164.38.07.477-.086.382-.165.382-.167.22-.277.27-.305.163-.295.095-.344.047h-.391v.001zm-2.092-.072l.011-.034-.026-.042-.332-.14-.117-.118-.055-.258.004-1.865.047-.11.102-.056.277-.037.211.027.166.066.106.128.047.112.039.044.058.02.051-.023.023-.055-.008-.387-.05-.181-.102-.056h-.537l-.278.034h-1.715l-.065.012-.048.032-.043.113-.042.429.019.22.04.038h.045l.072-.084.111-.281.13-.104.172-.062.463.003.085.07.035.121-.011 2.016-.074.16-.149.084-.174.066-.025.052.012.058.042.043.142.018.433-.042.302.011h.173l.433-.041zm-8.273.032l-.375.017-.215.026-.074-.008-.05-.027-.021-.046.047-.098.148-.089.059-.098v-.206l-.19-.359-.087-.07-.358-.032-.211-.023-.3.011-.14.093-.09.145-.093.301.023.128.065.089.286.114.04.043.001.05-.03.032-.838.023-.136.026-.122-.031-.01-.039.105-.115.17-.145.118-.195.795-1.855.308-.628.086-.071.055.009.074.089.202.422.062.17.133.259.338.75.25.531.258.523.076.078.17.066.034.033.004.076-.023.037-.116.034-.428-.04zm-3.477.008h-.218l-.282.035-.152-.008-.057-.024-.051-.084.022-.043.191-.126.082-.15.005-.855-.012-.066-.077-.08-.442-.026-.21-.023-.46.008-.176.058-.062.093.005.847.03.125.075.081.305.09.072.075-.01.033-.051.029-1.006.011-.203.035-.073-.008-.055-.027-.047-.09.261-.183.058-.098.052-.415-.004-1.17-.021-.178.025-.134-.063-.327-.067-.09-.159-.076-.128-.03-.04-.043-.011-.055.027-.05.126-.035 1.012-.008.114-.012.034.038.016.063-.016.058-.096.066-.102.056-.055.1-.047.266.012.379.055.177.093.064.612.01.203.033.307-.005.11-.047.065-.09.024-.132-.012-.534-.058-.174-.082-.076-.183-.05-.05-.031-.035-.05-.005-.052.04-.04 1.166-.003.05.028.02.042-.016.052-.19.128-.057.1.005 2.094.082.23.144.089.167.076.023.05-.004.054-.042.04-.221.017-.282-.032zm-6.275 0H84.1l-.203.035-.146-.018-.07-.071.01-.042.218-.173.055-.101.011-.377-.011-1.703-.075-.162-.188-.122-.167-.072-.039-.038-.007-.038.031-.032.22-.017.461-.007.204-.032h.31l.063.023.035.04v.042l-.082.063-.144.093-.032.125-.003.308-.024.19.031.207.011 1.391.094.218.087.07.244.075.04.032.011.038-.019.04-.117.047-.435-.032zm-1.746-.008h-.705l-.055-.024-.009-.038.079-.078.136-.102.047-.107-.003-.148-.164-.387-.082-.074-.18-.055-.612.011-.174.058-.11.126-.11.28-.008.149.044.112.144.09.183.055.037.03.003.04-.071.086-.223.016-.27-.044-.274.046-.236-.008-.049-.027-.023-.049.011-.053.23-.167.151-.236.811-1.84.29-.651.041-.04.052-.009.054.02.07.094.352.741.607 1.34.242.538.125.108.203.11.011.038-.07.072-.132.01-.363-.033zm-3.506 0l-.123-.034-.277-.268-.155-.235-.126-.188-.405-.534-.055-.023h-.062l-.097.061-.055.104-.012.377.012.378.057.098.256.145.022.047-.015.045-.118.053-.128.007-.204-.032-.38.008-.202.034-.145-.017-.07-.072.008-.041.23-.16.078-.156.016-.22-.012-1.549-.008-.176-.024-.174-.062-.099-.195-.116-.143-.098-.016-.052.02-.042.05-.028 1.166.004.038.04-.004.05-.082.082-.097.061-.047.11-.038.35.014.376.033.284.03.032.087-.052.162-.156.172-.14.265-.279.144-.17.199-.273.011-.05-.016-.046-.19-.133-.01-.047.033-.04.12-.041h.617l.272.047.038.038.005.055-.035.046-.269.13-.389.31-.508.507-.061.094v.105l.199.272.233.313.082.072.14.252.285.337.245.223.11.055.034.038-.006.048-.092.065h-.17l-.383-.012h.003zm-8.04-.203l.096-.061.076-.156.037-.203-.02-.067-.038-.038-.052-.005-.086.075-.191.2-.31.156-.398.073-.23-.009-.095-.06-.057-.177-.009-.77.035-.121.116-.04.46.015.091.068.108.201.024.06.043.038.055.012.051-.027.034-.125-.018-.3-.024-.21-.004-.231-.046-.112-.044-.033h-.046l-.07.083-.134.183-.155.077-.203.036-.151-.008-.094-.061-.032-.127.005-.705.02-.057.038-.039.293-.02.38.007.172.063.083.075.061.171.02.062.039.04.057.01.052-.028.035-.122-.008-.391-.052-.105-.105-.051-.377.003-.204.032-.85-.007-.203-.032h-.389l-.12.038-.023.04.014.041.156.087.168.066.094.14.023.211.01.748.029.383-.012.767-.066.167-.078.078-.151.09-.024.038.008.035.051.028.53.02.21.024h1.014l.171-.064.21-.18zm-5.649.211l-.301-.002-.276.037-.157-.008-.05-.027-.015-.043.065-.078.184-.133.047-.108-.003-1.938-.055-.257-.105-.128-.288-.104-.044-.044-.004-.049.039-.04.612-.015.202-.032h.394l.063.015.042.04.003.053-.08.075-.11.052-.065.088-.013.378.006 1.633.07.32.116.116.242.076.031.046-.004.055-.043.04-.222.017-.281-.035zm-1.972-.054l-.653-.825-.198-.271-.121-.117-.047-.014-.09.051-.061.1-.005.696.035.12.081.074.164.07.082.078.006.039-.029.032-.223.014-.768.009-.13.027-.117-.035-.022-.038.015-.043.233-.165.043-.111.046-.343-.015-.376-.023-.21v-1.169l-.034-.122-.074-.08-.212-.103-.058-.022-.039-.044-.015-.058.024-.055.055-.023.937-.003.182-.023.055.026.033.047v.058l-.079.086-.127.105-.056.18v.294l.031.204.005.313.026.044.036.013.284-.254.186-.125.267-.281.212-.257.035-.116-.012-.063-.082-.079-.089-.073-.007-.051.038-.04.935-.007.062.015.044.04.003.053-.03.043-.27.128-.175.138-.16.15-.171.142-.423.436-.044.107.027.111.634.85.358.42.246.15.039.042.015.059-.024.052-.053.025-.23.008-.282.034-.226-.087zm-4.606.046l-.374.017-.293.026-.07-.011-.034-.035.004-.055.073-.09.137-.096.047-.11-.008-2.088-.075-.162-.08-.074-.281-.112-.04-.035-.007-.042.026-.047.055-.035.13-.008.205.04.428-.044h.395l.062.015.04.04.003.05-.075.086-.128.105-.05.104-.009.53.036.278.008 1.317.062.171.152.082.171.07.031.043-.004.055-.043.04-.222.015-.272-.04zm-1.979-.085l-.632-.77-.203-.267-.16-.143-.089.027-.071.093-.023.133.008.537.02.145.062.082.206.117.04.043.007.047-.034.035-.84.023-.21.026-.143-.018-.043-.04v-.05l.035-.042.163-.075.093-.14.05-.183-.006-1.085-.028-.127.008-.238-.016-.534-.08-.153-.204-.11-.114-.05-.023-.052.005-.053.041-.04.224-.015.698-.003.194-.032.062.016.043.042.016.055-.02.055-.167.149-.047.108v.863l.023.052.048.017.448-.336.307-.316.207-.268.014-.12-.026-.052-.14-.104-.016-.052.02-.042.05-.028.94-.004.063.016.038.04v.046l-.089.07-.219.094-.217.172-.508.506-.175.136-.055.104-.008.133.047.114.64.84.331.372.222.17.031.047v.052l-.038.034-.355.04-.22.015-.185-.124zm-3.01.125l-.618-.005-.095-.062-.007-.038.07-.075.136-.102.062-.202-.17-.374-.072-.087-.171-.061-.28-.032-.215-.015-.261.056-.117.116-.14.33v.093l.063.166.268.127.042.04.017.047-.02.046-.051.027h-.39l-.17-.01-.457.015-.054-.024-.016-.048.024-.05.23-.167.199-.347.491-1.146.307-.704.125-.267.132-.261.055-.027h.062l.054.027.188.362.117.273.35.74.347.745.253.525.101.133.16.082.032.043-.004.055-.043.04-.222.015h-.312v.001zm50.717-.246l-.141-.093-.087-.149-.018-.291-.004-.78-.013-.172.017-.136-.032-.19.032-.204-.021-.184.047-.255.08-.079.257-.047.315.042.319.149.222.167.209.337.091.22.082.468-.082.468-.116.272-.223.245-.238.153-.242.07-.454-.011zm-12.002-1.137l-.014-.055.159-.468.131-.265.037-.035h.042l.052.105.084.23.176.453v.046l-.035.032-.258.05-.374-.093zm-40.216.035l-.018-.05.054-.185.247-.542.041-.012.04.032.279.673-.008.06-.034.038-.196.047-.405-.061zm-5.81.002l-.012-.124.125-.351.13-.262.036-.008.076.083.244.546.008.063-.018.05-.11.049-.301.012-.178-.058zm-6.567.064l-.054-.029-.024-.053.024-.132.242-.552.031-.037.043-.006.07.087.237.545.008.116-.038.04-.222.016-.317.005zm41.128-.055l-.051-.027-.023-.04.065-.233.207-.5.032-.05.034-.019.06.078.28.662.003.06-.027.042-.121.039-.459-.012zm-68.288 1.337l-.142-.015-.049-.028-.043-.113v-.015l.077-1.592.012-1.188.058-.175.051-.029 1.22-.006 14.536-.03.563.003.257.054.035.043.065.479.005.188.199 2.175-.012.168-.055.1-.253.054-16.42-.058-.104-.015z" fill="#BBBCBF"/><path fill-rule="evenodd" clip-rule="evenodd" d="M13.05 35.307l-.182-.05-.054-.102v-.78l.265-12.319.011-.49.113-.512.184-.362.307-.394.308-.236.491-.212.266-.046.35-.044.351.044.225.007.397.071.064.003 3.924.362 7.432.655.101.008.41.06.05.025.052.106v.004l1.222 13.532.012.272.028.212-.008.073-.027.05-.176.06-.553.003H13.05z" fill="#C9222F"/><path fill-rule="evenodd" clip-rule="evenodd" d="M87.295 34.817l-.023-.465-.004-.117.01-.055-.022-.042-.25-.063-.288-.022-.237-.075-.195-.117-.175-.136-.148-.243-.078-.237.04-.503-.017-.45-.023-.135.04-.272-.005-.542-.029-.19.034-.203.01-1.232.028-.285.007-.545.034-.036.106.032.215.183.198.19.212.18.154.156.176.137.25.218.235.233.256.211.16.152.17.14.313.311.175.137.507.43.277.268.313.311.166.144.258.212.16.151.171.14.163.15.246.22.184.206.342.282.312.312.175.136.331.292.157.155.428.35.14.173.222.168 1.009.005.066-.013.079-.079.011-.377.009-1.707.031-.202.004-3.115.034-.277.012-.304v-.17l-.007-1.157.07-.397.19-.278.468-.233.596-.105.051-.028.027-.128.01-.286.045-.17-.022-.287-.063-.092-.126-.03-1.402.006-.2.032-.17-.011-.53.014-.296-.014-.212-.024h-1.247l-.062.015-.037.04-.055.257-.008.226-.035.28.027.133.087.07.123.03.53.016.24.074.178.133.145.168.133.335.021.21.017.295.027.134-.044.351-.008 1.083-.03.203v.701l-.04.121-.039.023-.102-.038-.182-.133-.418-.362-.556-.456-.395-.386-.21-.179-.157-.155-.175-.136-.377-.325-.167-.143-.2-.192-.124-.11-.141-.171-.422-.36-.168-.142-.16-.152-.385-.316-.418-.363-.117-.116-.375-.328-.35-.273-.132-.023-.62-.003-.275-.035-.851.007-.203.032-2.023.003-.05.027-.028.05-.024.215-.046.142.003.166.028.289.07.086.099.058.536.085.157.079.24.225.157.235.078.233.064.483-.01 1.395-.03.203-.012 3.103-.09.46-.217.328-.259.21-.264.125-.311.078-.207.027-.05.028-.04.117-.031.28.007.305.04.272.04.04.26.05.276.035.453-.016.209-.022 2.181.004.276.034h.547l.119-.034.04-.118.004-.308zm20.219.381h.156l.058-.02.058-.097.172-.53.183-.596.175-.45.07-.24.111-.203.069-.241.51-1.528-.007-.061-.04-.04-.927-.004-.19.044-.099.058-.116.194-.41.682-.141.171-.116.118-.35.35-.306.241-.654.437-.662.272-.548.153-.386.082-.434.03-.537.005-.276-.034h-.781l-.121-.035-.028-.05-.045-.423.018-.4.02-.418.004-.775.034-.277.004-.464.016-.061.038-.04.133-.023.23-.003.202-.032.539.007.335.056.202.108.301.246.198.268.155.39.086.382.079.078.131.024h.781l.121-.035.038-.118.034-.354.009-2.175.031-.36v-1.09l-.035-.12-.116-.04-.78.008-.117.04-.054.1-.122.426-.132.257-.14.171-.167.144-.434.347-.259.059-.131.004-.125-.028-.272.034-.612-.01-.114-.047-.034-.086.019-.284-.007-.383-.028-.124.035-.273.004-1.633.07-.087.12-.034.932.004.277.039.288-.027.53-.015 1.244.004.306.085.252.137.257.21.218.25.218.326.3.558.093.063.268.042.375-.015.211-.023.055-.024.027-.054-.019-.218-.074-.55-.145-.947-.032-.264.005-.171-.075-.399-.034-.044-.133-.022h-.704l-.171-.012-.129.008-.207-.03-1.243.003-.276.039-.266-.036-.203.033-1.164-.004-.277-.036-.452.016-.213.024-2.411-.004-.19-.03-.204.034-1.625.01-.174.06-.03.05-.025.456-.016.28.04.118.107.047.283.03.295.016.237.074.192.2.125.264.086.46-.011 1.551-.016.12.02.188-.033.206-.007.537-.031.204-.009 2.408-.066.402-.147.24-.27.2-.234.076-.404.065-.152.003-.052.027-.027.05-.004.933.01.065.08.079.378.011 1.01-.004.277-.034.53.015.21.023 1.785-.008.202-.03 1.162.007.202.031.621-.004.276-.034 2.573.004.179.018.21-.022h.313v-.002zm-27.631.04l-.272-.033-.189.023-.2-.03-.855.004-.276.035-1.709-.01-.201-.03h-1.403l-.068-.011-.077-.079-.011-.378v-.39l.013-.061.086-.071.363-.105.184-.05.256-.134.226-.164.157-.233.06-.171.095-.605.01-3.105.03-.285-.005-1.091-.035-.278-.014-.218-.09-.299-.157-.235-.205-.183-.327-.141-.336-.054-.18-.055-.037-.038-.055-.258.016-.217.022-.211-.004-.16.015-.062.039-.04.378-.01 1.006-.012.12-.016.276.028.46.007 2.577-.004.276.035.615.008.04.04.047.19-.039.348-.004.386-.027.05-.178.054-.266.047-.366.18-.289.257-.112.198-.042.192-.011 1.776-.03.286-.007 3.035-.018.195.08.303.117.273.273.273.245.144.174.06.27.041.058.02.04.04.054.334v.546l-.01.066-.041.038-.532.015zm-29.425-.04l1.478-.004.277-.035.616.008.203.032 1.243-.005.117-.038.035-.044.047-.264-.017-.375-.023-.21-.003-.153-.028-.05-.11-.05-.116-.005-.211.024-.619-.004-.508-.117-.479-.223-.608-.404-.463-.472-.117-.194-.323-.379-.149-.163-.25-.296-.156-.155-.233-.313-.149-.163-.146-.163-.107-.129-.086-.148-.152-.16-.495-.595-.25-.298-.23-.238-.206-.26-.089-.145-.355-.425-.21-.257-.152-.16-.806-.986-.367-.491-.247-.3-.065-.097v-.117l.074-.09.701-.468.235-.156 1.208-.819.997-.716.791-.456.69-.324.91-.261.852-.16.53.015.124.017.203-.032.142-.015.07-.087.023-.132-.004-.23-.035-.277-.004-.385-.027-.05-.051-.027-.526-.02-.21-.023-.777.003-.277.035-2.023-.003-.275-.035-1.556.003-.276.035-.85.008-.202.031-.15.008-.042.035-.016.923.004.102.066.078.41.062.538.008.164.07.058.101.038.164-.042.175-.101.138-.243.224-.386.239-.545.373-.12.048-.78.549-1.025.689-.237.152-.815.51-.401.3-1.287.824-.112.027-.043-.027-.04-.121-.038-.273-.008-.616-.035-.202.043-.351-.005-.932-.034-.277.008-.77.058-.255.183-.362.118-.117.288-.18.44-.104.378-.012.124-.032.047-.032.028-.05v-.772l-.062-.328-.094-.062-.378.004-.203.031-2.646-.003-.277-.034-2.33.01-.12.017-.121-.02-.273.03-.297-.014-.211-.023-.3.01-.078.079-.01.378-.013.537.009.098.018.144.032.032.608.014.396.07.31.083.228.16.203.265.113.432.011 1.314.033.203-.008.694-.032.202.007.46.025.125-.025.187.033.202.003 1.477.031.194-.027.192.035.202-.042.352.007 1.082.032.204-.004 1.788-.035.278-.023.21-.148.32-.18.21-.328.218-.494.128h-.546l-.062.015-.036.044-.054.335.016.452.031.28.035.043.379.012.202.032 2.096-.01.203-.03.854.004.276.036 2.258-.005.275-.035.547.004.113.012.066-.068.055-.182-.004-.62-.059-.254-.124-.03-.663-.118-.242-.07-.265-.202-.186-.282-.09-.3-.048-.268.044-.35-.004-.776-.035-.278.003-1.944.062-.094.317-.23.273-.194.592-.425.117-.035.064.011.08.08.84 1.031.116.118.077.155.157.156.195.272.498.594.596.727.34.442.514.654.484.608.12.272.008.133-.067.171-.125.11-.155.078-.067.09-.011.378.003.463.039.117.101.059.176-.005h2.857l.248-.007.185.019.21-.023h.31v.002zm20.266 0l-1.072-.011-3.839.011-2.802-.004-.275-.039-.33.016-.129-.005-.122.02-.112-.015-.28.027-.291-.02-.114-.042-.028-.129.012-.854.038-.039.483-.06.259-.135.224-.24.095-.14.06-.329.024-.38.016-.438.012-2.837-.028-.077.016-.437-.01-1.318-.061-.326-.11-.204-.178-.21-.093-.063-.646-.132-.102-.055-.047-.108.008-.384.059-.408.052-.105.115-.039 1.315.008.203.031 3.034-.012.106-.009.1.052.453.014.042.036.048.191-.044.351-.004.386-.028.05-.109.047-.51.113-.178.133-.134.101-.043.113-.045.421.002 1.167.036.275-.02.402-.018.417.008 1.785-.008.315.038.2-.008.537-.03.358.014.451.035.276.058.1.179.055.335.054 1.087-.004.277-.034.53-.094.651-.208.338-.128.508-.273.32-.225.256-.211.543-.55.386-.549.253-.526.06-.094.127-.031.857.008.054.028.024.05-.017.129-.314.935-.148.474-.163.38-.535 1.572-.156.39-.042.035-.22.017h-.307zm-12.229-12.46l.059-.106.015-.14-.054-.105-.292-.175-.14-.172-.125-.265-.015-.217.012-.222.073-.16.175-.215.231-.159.132-.023.3.011.27.12.232.235.087.148.042.19-.004.223-.125.421-.187.28-.147.165-.344.28-.1.058-.068.012-.057-.016-.027-.026.057-.142zm-2.623-.277l-.062-.098-.194-.116-.137-.097-.149-.242-.097-.297-.016-.129.09-.377.105-.128.194-.196.231-.085.179-.024.23.087.156.078.246.221.108.204.055.179-.007.305-.134.411-.139.173-.282.264-.291.184-.117.02-.028-.028.059-.309zm-23.116-.157l-.218-.092-.132-.1-.117-.196-.071-.242.01-.46.069-.241.194-.351.264-.28.282-.187.21-.106.042.013.02.05-.063.175-.113.203-.007.12.066.091.285.182.269.355.062.173.008.303-.077.233-.137.175-.327.22-.2.038-.32-.076zm-2.695-.03l-.265-.203-.122-.19-.063-.25-.004-.386.141-.405.282-.422.162-.147.32-.23.054.007.04.04.011.058-.141.335.007.116.051.11.407.217.21.257.055.18-.014.456-.091.219-.157.155-.191.122-.405.066-.134-.027-.153-.077z" fill="#000"/><path fill-rule="evenodd" clip-rule="evenodd" d="M26.218 34.107l-.227-.008-.202-.03h-1.715l-.17-.064-.172-.14-.387-.47-.117-.197-.151-.159-.141-.171-.148-.164-.456-.557-.247-.3-.244-.3-.21-.258-.324-.377-.359-.422-.157-.156-.408-.526-.082-.074-.113-.2-.19-.198-.142-.171-.155-.156-.136-.176-.152-.159-.117-.12-.086-.04-.187.113-1.028.764-.188.124-.339.285-.024.132v.394l-.02.179.025.21-.005 1.869-.034.276.004 1.095-.016.062-.044.036-.334.054-1.087-.004-.278-.034-1.172.002-.063-.015-.035-.043-.054-.335-.004-1.014-.012-.171.016-.53-.004-2.49-.036-.199.04-.273-.004-2.49-.036-.277.008-.382.032-.203-.008-1.55-.032-.204.008-.771.039-.274.035-.042.117-.038.85-.008.277-.036.382.008.203.031 1.008.005.105.05.048.11.047.342.004 1.321.035.277-.005 1.01-.038.276.019.222.04.038h.12l.225-.17.274-.195.915-.643.539-.398.468-.311.709-.539.171-.14.771-.552.648-.446.311-.233.117-.008.21.024.375-.016.21-.024 2.492.005.275.035.22.02.053.022.028.039-.035.099-.305.247-.499.36-.199.112-.618.472-.258.21-.269.2-.943.692-.149.087-.353.27-.679.49-.436.343-.188.124-.315.24-.024.034.114.171.303.397.39.468.148.164.124.187.215.252.57.678.33.372.067.089.086.148.324.378.318.382.156.156.312.39.39.467.148.165.164.225.783.932.413.522.152.238.245.304.02.05-.015.04-.046.023-.29.027-.529.016z" fill="#fff"/></svg>