<svg width="48" height="59" fill="none" xmlns="http://www.w3.org/2000/svg"><path d="M24 56.802c.488-.244 13.158-5.74 17.177-9.038 4.142-3.42 6.336-8.305 6.336-14.167V6.117l-.366-.122C37.036.5 24.487.865 23.88.865 23.39.866 10.842.5.73 5.996l-.243.122V33.72c0 5.862 2.193 10.748 6.335 14.167 4.02 3.298 16.69 8.794 17.177 8.916z" fill="#341B14"/><path d="M24 57.413s-13.4-5.863-17.543-9.16C2.07 44.588 0 39.58 0 33.84V5.262C10.6-.478 24 .011 24 .011s13.4-.49 24 5.251V33.72c0 5.74-2.07 10.747-6.457 14.412C37.401 51.55 24 57.413 24 57.413zM1.95 33.84c0 5.374 1.949 9.771 5.725 12.824 3.412 2.81 13.523 7.328 16.325 8.55 2.802-1.222 13.035-5.863 16.325-8.55 3.776-3.054 5.726-7.572 5.726-12.824V5.751C31.918 4.407 15.106 5.14 1.949 17.353v16.488z" fill="#FFB406"/><path d="M37.523 29.811c1.827 1.1 2.559 1.832 2.68 3.175 0 1.466-.974 2.32-2.558 2.32-1.34 0-2.924-.732-4.02-1.709v3.908c1.34.733 2.923 1.344 4.629 1.344 4.142 0 6.091-2.931 6.091-5.618.122-2.443-.609-4.397-4.142-6.473-1.583-.977-2.802-1.587-2.802-3.054 0-1.466 1.34-2.076 2.436-2.076 1.462 0 2.924.855 3.777 1.71v-3.664c-.731-.61-2.315-1.466-4.63-1.344-2.802.122-5.726 2.076-5.726 5.496.123 2.32.854 4.03 4.265 5.985zm-14.376 8.793c.366.122.975.245 1.95.245 4.75 0 7.431-4.275 7.431-10.382 0-6.229-2.802-10.015-7.797-10.015-2.314 0-4.142.489-5.726 1.466v27.601h4.142v-8.915zm0-16.61c.366-.121.975-.366 1.462-.366 2.436 0 3.411 1.955 3.411 6.717 0 4.641-1.218 6.84-3.655 6.84-.609 0-1.096-.122-1.34-.244V21.994h.122zM10.356 38.85c2.558 0 4.75-.611 6.335-1.71V18.696h-4.264v16c-.488.366-1.097.488-1.95.488-1.95 0-2.193-1.831-2.193-2.93V18.696H4.021v13.312c0 4.52 2.192 6.84 6.335 6.84zM38.74 55.337v2.809h.488v-1.1h.121l.732 1.1h.609s-.732-1.1-.853-1.221c.365-.122.609-.367.609-.733 0-.367-.244-.855-.974-.855h-.732zm.732.366c.365 0 .487.244.487.366 0 .244-.121.489-.609.489h-.121v-.855h.243z" fill="#FFB406"/><path d="M41.421 56.68c0 .976-.853 1.831-1.827 1.831-.975 0-1.827-.855-1.827-1.832 0-.976.852-1.831 1.827-1.831 1.096 0 1.827.855 1.827 1.831zm-1.827-2.321a2.316 2.316 0 00-2.315 2.32c0 1.222.974 2.321 2.315 2.321a2.316 2.316 0 002.314-2.32c0-1.222-1.096-2.321-2.314-2.321z" fill="#FFB406"/></svg>